<?xml version="1.0" encoding="UTF-8"?> <svg xmlns="http://www.w3.org/2000/svg" width="399.98" height="307.09" viewBox="0 0 399.98 307.09"><path d="M312.42,203.53l-2.64-1.32,1.32-.66h2c.66,0-1.31,1.32,0,1.32.66,0,1.32.66,2,0l.66-.66c2.63.66,5.27,2,5.93,2s3.95.66,5.27.66a15.49,15.49,0,0,1,5.27,1.32,9.05,9.05,0,0,0,3.29.65,6.7,6.7,0,0,0,2-.65s2.63.65,1.31-.66c0-1.32-2-1.32-2.63-1.32s-4.61-.66-4.61-.66a8.29,8.29,0,0,0-3.95-1.32c-2,0-7.25-.66-7.91-1.31H323c1.31,0,.65,1.31,2,.65a6.89,6.89,0,0,0,2.64-.65l-5.27-1.32H317a31.52,31.52,0,0,0-3.3-1.32s-3.29-2-4-2-4.61-.66-5.27-1.32H292l-1.32-1.32s-.66-1.32,0-1.32h2.63c1.32,0,5.93.66,7.91.66a42.31,42.31,0,0,0,7.24,1.32c.66,0,7.91,0,8.57.66,1.31.66,5.93,2.63,7.24,2.63a12.85,12.85,0,0,1,4.61.66c2,1.32,3.3,1.32,4,2a4,4,0,0,1,2.63.66c.66.65,2.63.65,2.63.65a2,2,0,0,0-.65-1.31c-.66-.66-1.32,0-.66-.66,0-.66,2-.66,2-.66s0-.66-2-.66h-2v-.66h0l-2-2-.66-1.32.66.66h4.61c.65,0,2.63,0,3.29.66a9.25,9.25,0,0,0,2.63,1.31,15,15,0,0,1,2.64-.65,9.7,9.7,0,0,0,4-.66h7.9c.66,0,3.3.66,4,.66s2-.66,3.29-.66,1.32-.66,2-1.32-1.32-.66-1.32-.66l-2.64.66H350c-2.63,0-3.29,0-4.61.66h-4l-2.64-1.32c-1.31-.66-1.31,0-3.29-.66h-6.59c-.66,0,0-.66.66-1.32a9.45,9.45,0,0,1,2-1.31h4.61c1.32,0,2.63,0,3.29.66s3.3.65,3.3.65A6.57,6.57,0,0,1,346,193c1.32.66,3.29.66,5.27,1.32s1.32,0,2-.66-2,0-2,0A13.1,13.1,0,0,0,348,193a8.07,8.07,0,0,1-2-1.32,13.61,13.61,0,0,0-3.29-.65c-1.32,0-7.25-.66-7.25-.66l-4.61.66a8.19,8.19,0,0,1-3.29,1.31c-1.32,0,.65-1.31.65-2s1.32-1.32,2-2,1.32-1.32,2-1.32h3.95a34.31,34.31,0,0,0,5.93-1.31,6,6,0,0,1,3.29-.66c1.32,0,5.27-2,5.27-2a3.21,3.21,0,0,0,2-.66c.65-.66-1.32-.66-1.32-.66a25.09,25.09,0,0,0-4,1.32,8.91,8.91,0,0,1-3.3.66,23.83,23.83,0,0,1-4.61.66c-1.32.66-5.93,0-7.24,0a6.94,6.94,0,0,0-2.64.66s-2,2-2,2.63-.66,0-2,.66c-.66,0-1.32-.66-2-.66s-3.29-1.32-4.61-2c-.66-.66-2.63-1.32-3.29-2-1.32-.66-2-1.32-3.29-2s-2,0-3.3-1.31c-1.31-.66-2.63-2-3.29-2s-.66,0-.66-.66h1.32a7.19,7.19,0,0,0,3.29-.66c1.32-.66,5.27-2.63,5.93-2.63h9.88c2,0,2.63-.66,3.29-.66h3.3c2.63,0,2.63,0,3.95-.66s6.59,0,6.59,0,3.95-.66,5.26-.66h4a6.85,6.85,0,0,0,2.63-.66,6.45,6.45,0,0,0,.66-2c0-.66,2-1.32,2.63-1.32s4.62,0,5.27-.66,2.64-.66,3.3-1.32,3.29-.65,3.29-.65,2,0,2.64-1.32L375,162c.66-.65,5.27-.65,5.27-.65l3.95-1.32h5.27l2,.66,2,2a1.46,1.46,0,0,0,1.93.7l.07,0-.66-1.32s0-1.31.66-1.31a1.42,1.42,0,0,1,1.32,1.31c0,.66.66,2,0,2.64,0,.66-1.32,1.32-1.32,2.63s1.32-1.31,1.32-1.31.66-1.32,1.31-2.64c0-.66.66-2,.66-2.63a3,3,0,0,0-2-2c-.66-.66-2,0-2.64,0s-4.61-.66-5.27-.66a12.89,12.89,0,0,0-4.61.66c-2,.66-2.63,1.32-3.95,1.32a8.35,8.35,0,0,0-3.95.66c-1.32,0-5.27,2.63-5.93,3.29s-4.61,1.32-5.93,2-3.29,0-4.61,0-2.63,1.31-4.61,2c-2,0-2.63.66-3.95,1.32a38.72,38.72,0,0,1-8.56,1.32H336.2c-1.32,0-3.29,0-3.95.66-1.32.65-7.25.65-8.57,1.31-1.31,0-4.61-.66-6.58-.66s-3.3,0-4.61.66-5.93,2-6.59,2.64h-4.68c-.66-.66-3.29-.66-4-.66s-4-.66-5.27-.66h-4c-1.32,0-2.64-1.32-3.3-1.32s-1.32-.66-2-.66-2,2-3.3,1.32a5,5,0,0,0-2.63-.66c-1.32,0-3.3,1.32-4.61,2h-4c-2,0-5.93.66-7.25.66s-2-.66-2.64-.66-2.63-.66-3.95-.66h-2.5c-.66,0-1.32-.66-1.32-2,4-.65,13.17-2,14.49-2s3.3-.66,6.59-.66c3.29-.66,9.88-2,11.2-2.64,1.31,0,4-1.31,5.27-2s4-1.32,5.26-2c.66,0,.66,0,1.32.66a8.33,8.33,0,0,0,5.27.66,6.94,6.94,0,0,1,2.64-.66h2.63l3.29.66a6.94,6.94,0,0,0,2.64.66h3.29c1.32.66,2,1.32,3.3,1.32h2.63a30.4,30.4,0,0,1,3.29-.66c.66,0,4,1.31,5.27,1.31s.66-.65,3.3,0h7.9c.66-.65,1.32,0,2-.65,0-.66-1.32-.66-1.32-.66a35.78,35.78,0,0,1-4.61.66c-1.32,0-3.95-.66-5.93-.66l-.66-.66c-.66-.66,1.32-2,1.32-2l.66-1.31,1.32-3.3a25.65,25.65,0,0,1,2-2.63c.66-.66,0-1.32,0-2,0-1.32.66-1.32,1.32-2.63l.66-1.32h-.66l-1.32,2a2.26,2.26,0,0,0-.66,1.31,4,4,0,0,1-.66,2.64l-1.31,1.31-2.64,4.62a6.85,6.85,0,0,0-.66,2.63,4.56,4.56,0,0,1-1.31,2.63,2.32,2.32,0,0,0-.66,1.32,12.85,12.85,0,0,0-4.61-.66c-1.32,0-5.27,0-5.93-.66h-6.59c-1.32,0-2.63-.65-3.29-.65H300c-2,0-3.29,0-2.63-1.32h2c1.32,0,9.88-1.32,10.54-1.32s4.61-1.32,5.93-1.32,2.63,0,2.63-.65h4l.65-2,1.32-3.29,3.95-3.3s1.32-2.63.66-2c-2,1.31-2.63,0-3.95,0a2.32,2.32,0,0,0-1.32.66,9.52,9.52,0,0,1-1.31,2.63,26.91,26.91,0,0,1-2.64,2H319c1.32-1.32,2.64-3.3,3.3-3.3l3.29-3.29c.66-.66,2.63-3.29,3.29-4a9.22,9.22,0,0,0,2-2.64,6.72,6.72,0,0,1,2-.66h1.31a6,6,0,0,0,3.3-.65h2a2.29,2.29,0,0,0,1.32-.66l-.66-.66c-.66-.66-1.32.66-1.32.66a6.45,6.45,0,0,1-2,.66h-2a2,2,0,0,1-1.32-.66c1.32-.66,2.64-1.32,2.64-2.64.66-1.32,1.32-2.63.66-2.63a3,3,0,0,0-2,2c0,.66-2.63,2.64-3.29,3.3s-2,2.63-2.64,3.29-5.27,6.59-5.27,6.59l-3.95,3.95c-.66,0-.66.66-1.32,2H317c-1.32.66-1.32,1.32-2,2s-.66,1.32-2,2c-2,0-3.95.66-5.26.66-2,0-4,0-5.27.65s-8.57,1.32-9.88,1.32-2.64,1.32-3.3,2c-.66,0-1.31.66-2,.66s-1.32,0-1.32-.66c-.66-.66,0-.66-.66-.66l-.66-.66h-1.32a2.26,2.26,0,0,0-1.31.66l-.66.66a2,2,0,0,1-1.32.66h-4.61c-1.32,0-2.63,0-2.63-.66V164a.91.91,0,0,0-1.29,0l0,0c-.66.66-.66.66-1.32.66a.65.65,0,0,1-.66-.64v0c-.66-1.32-.66-2.63-1.32-2.63a9.45,9.45,0,0,0-1.31-2c-.66-1.32-2-2.64-2-3.29-.66-.66,0-.66-1.32-2s-1.31-1.32-1.31-2-1.32-1.31-.66-2h0c2,.66,5.27,1.32,7.24,2,2.64,0,7.91.66,9.23.66s4.61,0,5.92-.66c.66-.65,6.59-2,7.91-2s3.29-.66,4-.66c1.32,0,5.27-.66,5.93-1.32,0-.66,1.31-1.32,1.31-1.32a6.7,6.7,0,0,0-2-.65c-1.32,0-2.64-1.32-3.29-1.32a7.2,7.2,0,0,0-3.3.66c-.66,0-5.27-.66-7.9.66s-4,2-5.27,2h-8.56c-.66,0-4.61.66-5.27,0a7.71,7.71,0,0,0-4.61-1.32c-.66,0-.66-.65-1.32-.65-.66-.66,0-.66,0-1.32s1.32-.66,1.32-.66a2.26,2.26,0,0,1,1.31-.66h15.15a6.72,6.72,0,0,1,2,.66h2a6.51,6.51,0,0,1-2.63-.66c-1.32,0-2.63-.66-4-.66a2.91,2.91,0,0,1-2-.66h-5.93a2.26,2.26,0,0,1-1.31-.66,2.29,2.29,0,0,1-1.32.66h-2.64a3.21,3.21,0,0,1-2,.66l-.66.66-1.32,1.32v.66a2,2,0,0,0-1.32-.66s-2-.66-2.63,0-2.63,1.32-3.29,2-4,2-4.61,2.64-2.64,2-3.3,2.63-4,4-4.61,4.61a11.1,11.1,0,0,1-4,2c-.66.66-5.93,2.64-7.25,4.61A6.7,6.7,0,0,1,224,166l-2-.66L220.86,164h-.66v-.66c0-.66-.66-.66,0-1.32v-2l.66-1.32v-2s0-1.31.66-1.31a2,2,0,0,0-.66-1.32c0-.66-.66,0-.66,0a2,2,0,0,1-.66,1.32c-.66.66,0,.66,0,2v.66a2.32,2.32,0,0,1-.66,1.32s0,1.32-.65,1.32v2h0l-1.32-.66-1.32-1.31v-.66a2.32,2.32,0,0,1-.66-1.32,3.42,3.42,0,0,1-1.31-2.63c-.66-.66-.66-3.3-.66-4.61a6.9,6.9,0,0,1,.66-2.64,28.14,28.14,0,0,0,.65-3.29c.66-.66.66-2.64,2-5.27v-.66a59,59,0,0,0,4.61-22.4c0-30.3-14.49-44.13-48.08-54.67-19.1-5.92-28.33-9.88-28.33-25,0-9.88,6.59-21.07,21.08-21.07,11.2,0,23.71,8.56,28.32,14.49,4,4.61,6.59,11.85,8.57,19.76H215V2H202.42c-2,2-4,4-6.59,4-4,0-7.9-1.32-11.86-2.64A83.12,83.12,0,0,0,162.9,0c-25,0-46.11,17.13-46.11,44.13,0,25.69,9.22,39.52,32.27,49.4l19.77,7.91c5.26,2,12.51,5.27,17.12,10.53.66.66.66,1.32,1.32,2v2.64a6.72,6.72,0,0,0,.66,2,3.23,3.23,0,0,1-.66,2,3.21,3.21,0,0,0-.66,2s1.32,1.32,1.32,2c0,1.32.66,1.32-.66,2.63-1.32.66-2,0-2,0s-1.32,0-1.32-.65a.64.64,0,0,0-.62-.66h0l-5.27,2a6.45,6.45,0,0,1,.66,2c0,1.32.65,1.32,0,2s-1.32,1.32-.66,2c0,.66.66,1.32.66,2a3.89,3.89,0,0,1-.66,2.63c0,.66-2,1.32-2,1.32l-.66.66-.66.66c-.66.66-.66,0-1.31,0s-2,.66-2.64.66h0a2.32,2.32,0,0,0-.66-1.32.65.65,0,0,0-.64-.66h0a.64.64,0,0,1-.65-.63v0c-.66,0-.66-.66-1.32-.66s-1.32,0-1.32-.66l-1.32-1.31a2,2,0,0,0-.66-1.32,2.3,2.3,0,0,0-.65-1.32,9.49,9.49,0,0,1-2-1.32c-.66-.66-1.32-1.31-2-1.31L158.21,130c-.66-.66-.66-1.32-1.32-2a2.26,2.26,0,0,1-.66-1.31v-2a6.72,6.72,0,0,1,.66-2,5,5,0,0,1,1.32-2.63,5,5,0,0,1,1.31-2.64c0-.65.66-2,.66-2.63a4,4,0,0,0,.66-2.64c0-.65-.66-2-.66-2.63s-.66-1.32-.66-2-1.31,0-1.31,0V110a2,2,0,0,0,.66,1.32v3.29c0,.66-1.32,2-1.32,2v2a.65.65,0,0,1-.64.66h0c0,.66-.66,1.32-.66,2a6.45,6.45,0,0,1-.66,2v2.64l-1.32-.66L153,123.83c0-.66-.66-2-.66-2.63a13.83,13.83,0,0,0-1.32-4c0-.65-.66-2-.66-3.29v-4c0-.66,0-.66.66-.66h.66a2.34,2.34,0,0,0-2,1.32v6.58c0,.66.66.66.66,1.32v1.32c0,.66.66.66.66,1.32s0,.65.66,1.31a2.42,2.42,0,0,0,.66,2c0,.66.66,1.32.66,2s.66.65,1.31,1.31c.66,0,2,2.64,2,2.64l1.32,1.31c0,.66.66.66,1.32,1.32s2,1.32,2.63,2,.66,2,1.32,2.63a9.49,9.49,0,0,0,2,1.32,8.07,8.07,0,0,0,2,1.32c1.32.66,1.32.66,1.32,1.32s0,2.63-.66,2.63c-.66.66-.66,1.32-1.32,1.32H163l-1.32-1.32v-2.63c-.66-.66-.66-1.32-1.32-2a2,2,0,0,1-.66-1.32h0c0-.66-.65-.66-.65-1.32s-1.32-1.31-2-2h-2.64c-.65,0-2,.66-2,1.32-.66.65-.66.65-1.32.65l-2-.65a6.45,6.45,0,0,0-2-.66l2-1.32c.66,0,.66,0,0-.66h-.65l-.66.66-.66.66-.66-.66-1.32-.66c-.66,0-2-.66-2-1.32-.66-.66-1.32-.66-2-1.31a2.29,2.29,0,0,0-1.32-.66,2.39,2.39,0,0,0-2-.66c-.66,0,0,.66,0,.66a2.26,2.26,0,0,0,1.31.66c.66,0,2.64,1.31,2.64,2a2,2,0,0,1,1.32.66,9.28,9.28,0,0,0,2.63,1.32.64.64,0,0,1,.66.64v0l-.66.66-.66,1.31a2.32,2.32,0,0,0-.66,1.32h-3.29a45.49,45.49,0,0,1-11.2-11.2c-4-6.58-6.58-11.85-7.9-19.1H109.54V155.4c0,.66-1.31,2-1.31,2a2,2,0,0,1-.66,1.32h-1.32c-.66,0-.66-.66-1.32,0a6.72,6.72,0,0,0-2,.66,6.55,6.55,0,0,0-2.64.66c-.66.66-.66.66-1.31.66a9.27,9.27,0,0,1-2,1.3H94.39c-1.31,0-4-.65-6.58-.65-2,0-7.91.65-8.56,1.31-1.32,0-3.3.66-3.3,0-.66,0-2-.66-2.63,0a2.42,2.42,0,0,1-2,.66,6.45,6.45,0,0,1-2-.66H66c-.66.66-3.29,0-3.95,0s-2.63.66-3.29.66a28.76,28.76,0,0,0-3.3.66H46.31c-.66,0-3.29.66-4,.66H41.7a14.54,14.54,0,0,1-3.29-2c-.66-.66-1.32-2-2.64-2s-4,0-4.61-.66H25.23c-.65,0-2-.66-3.29.66s-2,1.31-2,2,1.32,0,1.32,0a9.45,9.45,0,0,1,2-1.31,15.11,15.11,0,0,1,2.63-.66c.66,0,.66.66,2.64.66a14.32,14.32,0,0,1,3.95.65s3.29,0,3.29.66.66.66,1.32,2l-2,1.32a6.5,6.5,0,0,0-2.63.65L29.84,168c-1.31.66-.65.66-2.63,1.32a15,15,0,0,1-4.61.66H19.31c-.66,0-2.64.66-3.3.66H11.4c.66.66,1.32.66,1.32,1.31l.66-.65h5.27c1.31-.66,4,0,4.61,0s4.61-2,5.27-2c1.31,0,5.27-2,6.58-2h3.3a3.23,3.23,0,0,1,2-.66h1.32s2,.66,2.64,0,.65-.65,2-.65c.66,0,3.3.65,4,0H53a35.78,35.78,0,0,0,4.61-.66c.66,0,4-.66,4-1.32h4c.66,0,5.27.66,5.93,0s3.29,0,4-.66c.66,0,5.93-.66,6.59-.66h8.56c1.32,0,2.64-.66,4,0,.66.66,3.3,1.32,3.3,1.32h.66c0,.66-2,1.32-2.64,1.32H94a2,2,0,0,0-1.32.66c-.66.65-.66.65-1.32.65l-2,.66h-4c-2,0-2,.66-3.29,0-1.32,0-2-.66-2-1.31s-1.31-.66-.65,0,2,1.31,2,2.63c0,.66-1.32,1.32-2,2a2.32,2.32,0,0,0-1.32.66c-.66,0,0,1.31-.66,1.31s-2.64.66-4,.66c-.66,0-3.3,1.32-4.61,1.32s-4.61.66-5.93.66c-1.32.66-5.93.66-7.25.66-.66,0-5.92.65-7.24.65h-4.7s-4,1.32-5.27.66c-1.32,0-2.64-.66-4-.66s-7.25-1.31-7.91-2a7,7,0,0,0-4-1.32,8.23,8.23,0,0,1-3.95-.66,8.23,8.23,0,0,1-4-.66c-.66,0-1.32-.65-2-.65h-2L12,172.57c.66.66,5.27,1.32,6.59,1.32s4.61.66,5.93.66c.65.66,6.58,2.63,7.24,2.63s3.95.66,3.95,1.32,0,1.32-.66,1.32c-.65.66-2,1.32-.65,1.32s1.31-1.32,2-2c.66,0,1.32-.66,2.64-.66.65,0,4.61.66,5.92.66h5.94c1.32,0,7.91-1.32,9.88-1.32s10.54-2,11.86-2,2,0,2.63-.66a2.42,2.42,0,0,1,2-.66c0,.66.66,0,1.32,0,.66-.66,1.31-.66,2-1.32s2-.66,3.3-1.32,2-2,2.63-2h2s0,.66-1.32,1.32a9.45,9.45,0,0,1-2,1.31,6.67,6.67,0,0,1-2.63.66A3.43,3.43,0,0,0,80,174.47c-.65.66-1.31.66-2,1.32-1.32.65-2,.65-2.64,1.31s0,0-1.31.66a5,5,0,0,0-3.3,1.32c-.66.66-2,.66-2,1.32a2.26,2.26,0,0,1-.66,1.31,6.9,6.9,0,0,1-2.64.66h0c-1.31,0-2.63.66-3.29.66a1.42,1.42,0,0,1-1.32-1.32c0-.65-.66-.65-1.31,0s.65,1.32.65,1.32l2,1.32a3.21,3.21,0,0,0,2-.66c-.66.66-1.32,1.32-2,1.32-.66.66-2.63,1.32-2.63,2s-4.62,1.32-5.93,2-2,2.63-3.3,3.29S47.63,195,47,195l-2,2c-.65.66-2.63,1.32-3.29,2a6.93,6.93,0,0,0-1.32,3.29c-.66.66-.66,2-1.31,2-.66.66-1.32,1.32-2,1.32a.65.65,0,0,1-.66-.64v0c-2.63-.66-2.63-2-3.95-.66s-2,0-.66,2a1.43,1.43,0,0,0,1.32,1.31,2,2,0,0,0-.66,1.32l-2,2a2.34,2.34,0,0,0-2,1.31,38.09,38.09,0,0,1-2,3.3s-2,1.31-1.32,2c0,.66,1.32,0,1.32,0a3.21,3.21,0,0,1,.66-2l2.63-2.64c.66-.66,1.32-2,2.64-2.63l1.32-1.32c1.31,1.32,2.63,2,3.29,2.63,2,.66,4,3.3,5.93,2.64s2-5.27,5.27-6.59,10.54-3.29,14.49-5.27S71.28,201,74.57,201a70.22,70.22,0,0,1,7.25.65c1.32,0,5.93.66,7.25.66h1.31A.64.64,0,0,1,91,203v4.63a6.72,6.72,0,0,0-.66,2v3.95c0,.66-.66,1.32-.66,2s-.65,2-1.31,2-1.32,1.32-1.32,1.32-1.32,1.32-1.32,2v2c-2,.66-3.29.66-5.27,1.32a4,4,0,0,1-2.63-.66c-1.32-.66-.66,0-2-.66-1.32,0-2-.66-2.63,0H66.73l-1.32.66c-.66,0-2,1.32-2,1.32l-1.32,1.32a2.36,2.36,0,0,1-1.32.65c-4.61.66-8.56,1.32-10.54,1.32-3.29.66-9.22,2.64-10.54,4a30.78,30.78,0,0,0-5.92,4,5.16,5.16,0,0,1-3.3,1.31l-2,3.3L31.1,244a2,2,0,0,1,1.32.66h0A16.39,16.39,0,0,1,31.1,248a3.23,3.23,0,0,1-.66,2c0,.66-.66,2-.66,2.63a2.43,2.43,0,0,1-.65,2c0,.66-.66,2-.66,2.63v5.93a.64.64,0,0,0,.66-.64v-6.6s.65-2.64,1.31-3.3c0-1.31,1.32-4,1.32-4.61a9.4,9.4,0,0,1,1.32-3.95l.66-.66c.66,0,1.31-.66,2-2a.66.66,0,0,0,.64.66h0s1.32.66.66,1.32l-.66.66.66.66,1.32-1.32s1.31-.66,1.31-1.32a7.6,7.6,0,0,0-2-1.31,39.31,39.31,0,0,1,7.24-4c3.3-1.31,19.76-4,23.06-4.61,3.29,0,12.51,0,17.12-2,.66,0,1.32-.66,2.64-.66a.65.65,0,0,1-.64.66h0a9.72,9.72,0,0,0-2.64,1.31c-.65.66-3.29,1.32-3.29,1.32s-.66,0,0-.66a.65.65,0,0,0-.64-.66H79.25a.66.66,0,0,0,0,1.32v1.32c0,.66-1.32.66-2.64.66s-2,0-2.63.66c-.66,0-2,1.31-2.64,1.31H66.73c-.66,0-2.63,1.32-3.29,1.32s-2,1.32-2.64,1.32a8.92,8.92,0,0,0-3.29,2,13.93,13.93,0,0,0-4.61,2,9.75,9.75,0,0,0-2.64,1.32c-.65,0-1.31,2-1.31,2,0,.66-.66,1.32-.66,2-.66,1.32-1.32,1.32-2,2s0,.66.66,0,1.32,0,2-1.32a3.23,3.23,0,0,0,.66-2A1.4,1.4,0,0,1,50.92,246l1.32-1.32a2,2,0,0,0,1.32-.66c.66,0,2.63,0,3.29-.66.66,0,.66,0,2-.66a2,2,0,0,1,1.31-.66l-.65,1.32a30.4,30.4,0,0,0-.66,3.29,26.76,26.76,0,0,1-.66,3.3l.66.66V247a2.39,2.39,0,0,0,.66-2l.65-1.32a6.45,6.45,0,0,0,.66-2c0-.66,1.32-.66,1.32-.66l1.32-1.31a5,5,0,0,0,2-.66c.66,0,2-.66,2.64-.66h2.63a.64.64,0,0,1,.66.64v0a.66.66,0,0,0,.64.66h0c.66,0,.66,0,.66,1.31s1.32,0,2,.66c.66,0,1.32,0,0-.66a2.42,2.42,0,0,1-.65-2c0-.66-.66-.66-1.32-1.32-.66,0-.66-.66,0-1.32a3.94,3.94,0,0,0,2.63-.65,17.1,17.1,0,0,0,3.3-1.32l2-1.32a2.32,2.32,0,0,1,1.32-.66c.66,0,1.32-.66,2-.66a28.17,28.17,0,0,1,3.29-.66c.66,0,.66-.65,1.32-.65h2a26.91,26.91,0,0,0,2.64-2,3.23,3.23,0,0,1,2-.66c.66,0,2-1.32,2.64-1.32a2.42,2.42,0,0,0,2-.65c.66,0,1.32-.66,2-1.32a.91.91,0,0,1,1.29,0l0,0c.66,0,0,.66,0,1.32l-1.32,1.31c0,.66-1.32,2-1.32,2.64a8.71,8.71,0,0,1-2,3.29c-.66.66-1.32,3.29-2,3.29-.66.66-1.32,2-2,2.64,0,.66-.65.66-1.31.66s.66.66.66.66a2,2,0,0,0,1.31-.66,2.42,2.42,0,0,1,.66-2l1.14-1.2h.66c.66,0,.66.66,1.32.66a2.91,2.91,0,0,1,.65,2v1.32H99a6.7,6.7,0,0,0-2,.65l-2,.66a14.68,14.68,0,0,1-2.63.66h-4a6.94,6.94,0,0,0-2.64.66,6.72,6.72,0,0,1-2,.66,7,7,0,0,0-3.3,1.32,32.18,32.18,0,0,0-3.29,1.31c-.66.66-4,.66-4,.66a2.9,2.9,0,0,1-2,.66v.66l.66-.66a2.42,2.42,0,0,1,2-.66,6.72,6.72,0,0,0,2-.66L79.9,245a5,5,0,0,0,2.64-1.32c0-.66,1.32.66,1.32.66.65,0,.65-.66,1.31-1.32s3.3,0,4,0a6.72,6.72,0,0,1,2,.66h1.25l.66,1.32v.66h0a9.45,9.45,0,0,0-2,1.31c-.66.66-2,2-2.63,2-.66.66-.66.66-2,.66-.66.66-1.32,2-2,2.63-.65,0-.65,1.32-1.31,1.32a.65.65,0,0,1-.66-.64v0c-.66,0-.66,0-1.32.66a.66.66,0,0,0,.64.66h0l-2,2.63h-2a4,4,0,0,0-2.64.66c-.66.66-2,1.32-2.63,2-.66,1.32-3.29,1.32-4,1.32s-3.3,2.63-4.61,2.63-3.3,2-4,2-1.31,1.31-2,1.31a31.07,31.07,0,0,0-3.3.66c-.65,0-2,.66-2.63.66l-2,.66-2.63.66c-.66,0-1.32,1.32-2,2s-4.61,0-5.27,0a2.39,2.39,0,0,0-2,.66.65.65,0,0,0-.66.64v0H33.14c-.66,0-.66-.66-1.32,0s-.66.66-1.32.66a5,5,0,0,1-2.63,1.32,6.72,6.72,0,0,0-2,.66l-1.31.65a4,4,0,0,1-2.64-.65,15.11,15.11,0,0,1-2.63-.66s-1.32-.66-2,0c-.66,0-2,1.31-2.63,1.31-1.32,0-4.62.66-5.27.66s-4-.66-4.61-1.31A9.18,9.18,0,0,0,2.18,274a6.72,6.72,0,0,0-2-.66c-.65,0,.66.66.66.66.66,0,2,1.32,2.64,1.32.66.65,2,.65,2.63,1.31a6.72,6.72,0,0,1,2,.66h2a6.72,6.72,0,0,0,2-.66h2a5,5,0,0,0,2.63-1.31h2l1.31,1.31h2c.66,0,0,.66-.66.66s-.66,0-.66.66.66.66,1.32.66h1.32A.64.64,0,0,0,24,278v0h4a2.39,2.39,0,0,0,2-.66h2a3,3,0,0,0,2-2c.66-.66,2.63-.66,2.63-.66h2a2.3,2.3,0,0,0,1.06-.63,15,15,0,0,1,2.64-.66h2c1.31,0,.65.66.65,1.32h1.32v-1.32l2-2c.66-.65,2.63-.65,3.29-1.31a5,5,0,0,0,2.64-.66c.65,0,3.29-.66,4-.66s1.32-.66,2-1.32,1.32-1.32,2-1.32,2-.65,2.63-.65c.66-.66,1.32-.66,2-1.32s2-1.32,2.64-2a3.89,3.89,0,0,1,2.63-.66c.66,0,4-2,4.61-2.63,0-.66,1.32-.66,2-1.32.66,0,2-1.32,3.29-1.32h2l1.31-.65c0-.66,2.64-2.64,2.64-2.64s3.29-2,3.29-2.63,1.32-.66,2-1.32a.9.9,0,0,1,1.27,0l0,0c.66,0,.66,1.32.66,1.32a2.42,2.42,0,0,1,2,.66c0,.65.66.65,1.32,1.31a2,2,0,0,1,.66,1.32,2.26,2.26,0,0,0,1.31.66c.66.66.66.66,1.32.66a2,2,0,0,0,1.32.66l.66-.66h2.63a2.33,2.33,0,0,0,2-2,2.32,2.32,0,0,1,.66-1.32l1.31-2a2.26,2.26,0,0,0-1.31-.66c-.66,0-.66-.66,0-.66h.65l.66-.66V247l.66-1.31h.66c.66,0,.66-1.32.66-1.32v-2.64a2,2,0,0,0-1.32.66,2.32,2.32,0,0,1-1.32-.66,2,2,0,0,0-1.31.66l-.66,1.32h1.32l1.31.66V245l-1.31.66-.66.65a.65.65,0,0,1-.64.66h0c-.66,0-.66-.66-1.32-.66h-4c-.66,0-1.32-.65-2-.65s-.66,0-1.31-.66.65-.66.65-1.32,2-1.32,2.64-2,1.32-.66,2-1.31h1.31l-.66.65a2,2,0,0,1-1.31.66s0,1.32-.66,1.32c0,.66.66,0,1.32,0h1.31c.66-.66.66-.66.66-1.32v-2c0-.66,1.32-.66,1.32-.66V237.7a.65.65,0,0,1-.66-.64v-.68c0-.65.66-.65,1.32-1.31.66,0,1.31-1.32,1.31-1.32a2.32,2.32,0,0,0,.66-1.32,9.49,9.49,0,0,0,1.32-2s0,1.31-.66,1.31v2c0,.66-.66,2-.66,2.63h0c-.66.66-1.31,2-.66,1.32a5,5,0,0,0,2.64-1.32.66.66,0,0,0,.64.66h0l1.32,1.32c0,.66.65,0,.65,1.32.66.66,0,2,0,2a2,2,0,0,0-1.31.66H113a.65.65,0,0,1-.66-.64v0c0-.66-.66,0-.66,0,0,.66.66,1.32,1.32,2.64,0,1.32.66.66.66,1.32s-.66,1.31-.66,2-.66,2-.66,2.64-.66.66-.66,1.31v2c0,.66-.66.66-1.32,1.32s-1.31,0-1.31.66l.65.65h.66a.64.64,0,0,0,.66-.62v0h.66v1.31c0,.66,0,1.32-.66,1.32-.66.66-.66,1.32-2,2-1.32,1.31-5.27,3.29-5.93,3.95h-2.77a3.23,3.23,0,0,0-2,.66,2,2,0,0,1-1.32.66c-.66,0-2,1.31-2,1.31s-.66-1.31-2.63,0a.65.65,0,0,0-.66.64v.68l.66.66h0a8.07,8.07,0,0,1-2,1.32c-.66,0-1.31,0-1.31.66a2.36,2.36,0,0,0-1.32.65l-2.64-.65h-2c-.66,0-1.32.65,0,.65h5.27l-3.3,2v2l-.66,1.31a14.68,14.68,0,0,1-2.63.66c-.66,0-1.32-.66-2,0s-1.31,2-2,2H76.61l-2,.66s-.65.66,0,.66a2.42,2.42,0,0,0,2-.66,6.93,6.93,0,0,0,3.29-1.32,2,2,0,0,1,1.32-.69l1.32.66v.66c-1.32,1.32-3.29,2-3.29,2.63a17.64,17.64,0,0,1-4,3.3c-.66,1.31-2.63,1.31-2.63,2.63s-2,2-2.64,4.61-.65,3.29-2,5.27A8.77,8.77,0,0,0,66,303a24.13,24.13,0,0,0,.66,4s.66.66.66-1.32.66-4.61,2-5.92c1.31-2,2-4,3.29-5.93.66-2,.66-3.29,2-3.95a24.83,24.83,0,0,0,4.62-4c1.31-1.31,2.63-3.95,4-4.61h0v.66l2-1.31h0c.66,0,.66-.66,1.32-.66,1.32,0,3.29-2.64,4-2.64.66-.66,2.64-1.32,3.3-2.63a12,12,0,0,1,2-2.64s2.64-2,3.3-2.63,2.63-1.32,4-2a32.25,32.25,0,0,1,3.29-1.32s4.61-5.26,5.93-6.58l4-3.95h0a.66.66,0,0,1,.64-.66h0l.66-.66h.66c.66,0,2-2,2.63-3.3,1.32-2,3.3-4.61,3.3-4.61.65-.65,1.31-3.29,2-2.63,0,.66.66,1.32,0,2.63-.66.66-1.32,3.3-1.32,3.3a8.19,8.19,0,0,0-1.31,3.29c0,1.32,0,4,.66,2.64s0-2.64.65-2.64,0,.66.66,0,0-2,0-2,1.32-4.61,1.32-5.26a13.35,13.35,0,0,1,1.32-4,13.53,13.53,0,0,0,3.29-3.29l3.29-3.29,5.93-2c2-.66,2.64-.66,3.3-1.32s5.26-2,5.26-2a2.44,2.44,0,0,1,1.32,2,12.24,12.24,0,0,1-2,2.64s-.66,4-1.32,4.61a20.05,20.05,0,0,1-3.29,2s-3.3,1.32-2,1.32,3.29-.66,2.63.66a13.85,13.85,0,0,1-2,3.29c-.66.66-2.64,2-3.3,4-.65,1.31-5.92,5.27-6.58,5.27s-5.27,4-6.59,5.92c2,2-.66,2.64-.66,4s2,0,2-.66c.66-1.32,4.61-4.61,5.93-5.27a95.45,95.45,0,0,1,8.56-6.59,33.54,33.54,0,0,1,3.29-2L144,255.55s-3.3,3.95-4,5.92a5.41,5.41,0,0,1-3.29,3.3l-1.32,1.31a9.49,9.49,0,0,1-2,1.32s-3.3,1.32-4.61,2a28.76,28.76,0,0,0-3.3.66l1.32.66,2.63-1.32s5.93-1.32,6.59-2.64c.66-.66,4-5.92,5.27-7.24.66-1.32,3.29-6.59,4.61-7.91a18.25,18.25,0,0,0,2-4s1.31-4,2-4.61,2.64-3.29,2.64-3.29l2.63-5.27a5.15,5.15,0,0,0,0,3.29,6,6,0,0,1,2,4.61,14.31,14.31,0,0,0,.66,4l.66.66a7.44,7.44,0,0,1,2,4,6.85,6.85,0,0,0,.66,2.63s1.32.66,2,0,.66-.66.66-1.32,1.31,0,0-.66-2-.65-2.64-1.31-2.63-6.59-2.63-7.91-2-4.61-2.64-5.93,0-4.61.66-5.92,0-4.61,1.32-5.93a9.41,9.41,0,0,0,2-3.3,8.11,8.11,0,0,0,1-3.35,13.16,13.16,0,0,1,.66-3.29s2-5.27,1.32-6.59a.9.9,0,0,1,1.27,0s0,0,0,0c.66.66,1.32.66,2,1.32s.66.66,0,1.32a6.45,6.45,0,0,1-.66,2s0,2.64-.66,2.64-.66,0-.66.66a2.3,2.3,0,0,1-.65,1.31v1.32c0,.66-.66.66-1.32,1.32s-1.32,0-1.32.66a2.26,2.26,0,0,0,.66,1.31v1.32a.91.91,0,0,0-1.29,0l0,0c-.66.66,0,1.32,0,2s-.66,1.31-.66,2a.66.66,0,0,0,.64.66h0s.66,0,.66-1.32a3.21,3.21,0,0,0,.66-2l1.32-.66a28.17,28.17,0,0,0,.66-3.29,2.06,2.06,0,0,0,.65-1.32s0-2,.66-2l1.32-1.31,1.32-4v-2.63a15,15,0,0,0,.66-2.64c.66-.65,2,0,2-.65s.66-.66.66-1.32a2,2,0,0,0,1.32.66l.66.66c.66.65,1.31.65,2,1.31a20.82,20.82,0,0,1,2.64,4,5.07,5.07,0,0,1,1.32,2,8.32,8.32,0,0,0,1.31,2,6.67,6.67,0,0,1,.66,2.63,11.18,11.18,0,0,1,1.32,3.29c0,.66,1.32,3.3,1.32,4s1.31,3.29,1.31,3.95a2.39,2.39,0,0,0,.66,2c.66,1.32.66,2,2,3.3a7.13,7.13,0,0,1,2,3.95c0,.66.66,1.32,1.32,2v2a9.75,9.75,0,0,1,1.32,2.64c.66.66,1.32.66,1.32,2a4,4,0,0,1,.65,2.64,6.45,6.45,0,0,0,.66,2l-.66.66c-.65,0-2-.66-2.63,0-.66,0-.66.66-.66,1.32a6.45,6.45,0,0,1-.66,2l-1.31.65a6.72,6.72,0,0,0-.66,2c0,1.32.66,2.64.66,2v-1.32s0-2,.65-2l1.32-1.31,1.32-.66a1.64,1.64,0,0,1,.34,2.3,1.77,1.77,0,0,1-.34.33l-.66,1.32c-.66.66,0,.66.66,0,.66,0,1.32-2,2-2s1.32,0,1.32-.66v-2.63c0-.66,1.32-.66,1.32-.66a2.34,2.34,0,0,1,2,1.32,9.45,9.45,0,0,1,1.31,2,9.49,9.49,0,0,0,1.32,2c.66.66.66,0,1.32,1.32a30,30,0,0,1,1.31,3.29v2c0,.66.66,1.31,0,1.31s-1.31.66-2,1.32c0,.66.66.66.66,0,.66-.66.66-.66,1.31,0,0,.66-.65,1.32.66,1.32.66,0,.66.66.66,0v-2a6.45,6.45,0,0,1,.66-2,9.47,9.47,0,0,0-1.32-2.64V258.2a5,5,0,0,1-1.31-2.63c0-.66,0-.66-.66-1.32s-1.32-1.32-1.32-2c-.66-.66,0-1.31-.66-2a2,2,0,0,0-1.32-.66c-.65-.66,0-.66-.65-1.32-.66-1.32-.66-2-1.32-2a2.39,2.39,0,0,0-.66-2L195.32,243c-.66-.66-.66-1.32-1.32-2a2.42,2.42,0,0,1-.65-2c0-.66-.66-2-.66-2.64A2.26,2.26,0,0,0,192,235a3.23,3.23,0,0,0-.66-2c-.66-.66-1.32-1.32-2-1.32s-1.31-1.31-1.31-2-.66-1.32-.66-2v-1.32c.66,0-1.32-4-1.32-4l-.66-1.32a3.21,3.21,0,0,1,2,.66l1.32,1.32s1.31,1.32,2,1.32c.66.66,0,.66.66,1.32l1.32,1.31s3.29,0,3.29.66c.66.66,1.32,1.32,2,1.32a6.45,6.45,0,0,1,2,.66,11.22,11.22,0,0,1,3.3,1.31,6.93,6.93,0,0,0,3.29,1.32,4.89,4.89,0,0,1,2.63,1.32,2.42,2.42,0,0,1,2,.66.64.64,0,0,1,.66.64v0a2,2,0,0,1,.66,1.31s0,2.64-.66,2.64c-.66.66,0-.66-.66.66s0,1.31,0,2a6.45,6.45,0,0,1-.66,2l-.66.66c1.32.66,1.32,1.32,1.32,1.32a6.72,6.72,0,0,1,2-.66h.66v.66a4.94,4.94,0,0,1,.65,2.63v1.32c0,.66-.65,1.32-.65,2.63a2.46,2.46,0,0,0,.65,2c0,.66.66-1.32.66-2a6.85,6.85,0,0,1,.66-2.63l1.32-1.32s.66-2.63,1.32-2.63,0,1.31,0,1.31a3.28,3.28,0,0,0,.65,2c.66.66,1.32-.66,1.32-.66l2-.66a6.72,6.72,0,0,1,2-.66c.66.66,2,1.32,2,.66.66,0,.66,0,.66-1.32a2.26,2.26,0,0,0-.66-1.31,2.29,2.29,0,0,1-1.32.66h-5.93v-1.32c0-.66.66-1.32,0-1.32-1.31,0-1.31.66-2,.66s0-1.32-.66-1.32h-1.32c.66-.66.66-1.32,1.32-1.32a.64.64,0,0,1,.66.64v1.34c0,.66,0,0,.66,0s1.31-1.32,1.31-1.32a2.32,2.32,0,0,1,1.32-.66h-1.32c-.65,0-1.31,0-1.31-.65s0-1.32.66-1.32,1.31-.66,1.31,0c.66.66.66.66,1.32.66a6.72,6.72,0,0,1,2,.66l.66.65h-2.64c.66,0,.66.66,1.32.66a.64.64,0,0,1,.66.64v0l.66.66s2,0,2,.66V245l.66.66v2c0,.66,0,.66.66,1.32a2,2,0,0,1,.66,1.32h1.31a.64.64,0,0,0,.66-.64v0c-.66-.66-1.31-1.32-.66-2,0-.66,1.32-.66,1.32-.66h2c.66-.66,1.32-1.31,2-1.31h1.32a.91.91,0,0,1,1.29,0l0,0,.66.65,1.31.66s.66.66,0,.66c-.65.66,0,.66,0,1.32s1.32.66,1.32.66a.66.66,0,0,0,.64.66h0c-2,2-4.61,4.61-5.93,7.24s-5.93,9.88-9.22,13.18a22,22,0,0,1-6.59,4.61s-1.31,1.31-2,1.31a17.1,17.1,0,0,0-3.3,1.32s-2,0-2.63,1.32-2,2-4,2.63a39.89,39.89,0,0,0-5.27,2.64,40.57,40.57,0,0,0-7.25,2,20.59,20.59,0,0,0-4.61,1.32l-2,.66s-.66,1.32,0,2,.66.65,2.63,1.31a14.48,14.48,0,0,0,5.27-.66c2-.65,4-2,4.61-2,1.32,0,2-.66,2.64-.66s0,.66.65,1.32c.66,0,1.32-.66,2.64-1.32.66,0,5.27-4.61,6.59-5.27l4-2c1.32-.65,5.27-3.29,6.59-3.29a21.05,21.05,0,0,0,4-3.29c.66-.66,5.27-5.93,5.27-6.59a37.18,37.18,0,0,1,3.29-5.27c.66-.66,3.95-4.61,4.61-5.27s4-2.63,4-4c0-.66.66-1.32,1.32-2.63h0l.66-1.32.66-1.32h2a4.94,4.94,0,0,1,2,2c1.32.65.66,2.63,1.32,2.63s.66.66,1.31,2,1.32.66,2,.66a2,2,0,0,1,.66,1.31s.66,2,1.32,2,.65.66,1.31,1.32,0,3.95.66,5.27.66,2.63,0,3.29V274a8.92,8.92,0,0,1-2,3.29c.65-2.63-.66-.66-.66-.66-.66.66-.66,2-1.32,2.64a9.49,9.49,0,0,1-2,1.32.91.91,0,0,0,0,1.29l0,0c.66.66.66-.66,1.32-1.31a9.22,9.22,0,0,0,2-2.64c.66-1.32,0-1.32,1.31-2.63a6,6,0,0,0,2-3.3,15.78,15.78,0,0,1,1.32-5.27,4,4,0,0,0-.66-3.95c-.66-1.32,0-3.29,0-4.61v-2.63c0-.66-.66-.66-1.32-1.32s-.66-1.32-.66-2.64c-.66-1.31-.66-.65-2-1.31-.66,0-1.32-.66-2-1.32s-.66-1.32-1.32-2a5.35,5.35,0,0,1-1.31-2c-.66-1.32-2.64-1.32-2.64-1.32h-2v-6.59c0-.66,0-2.63-.66-3.29,0-.66-5.27-4.61-7.25-5.93s-5.93-6.59-6.58-7.24c-.66-1.32-4.62-5.27-4.62-5.27s-2.63-4-4.61-7.25l.66-.66c0-.66,0-1.31.66-1.31h1.32s0,.65,2,1.31,2,1.32,2,1.32a3.21,3.21,0,0,1,2,.66c.66.66,0,.66.66,1.32s.65.65,1.31.65.66,0,1.32.66a2.29,2.29,0,0,1,1.32.66l2,.66s.66,0,2,1.32,1.32,2,2.63,2c1.32.66,1.32,0,2,.66s2.63,1.32,3.29,2a3.23,3.23,0,0,0,2,.66H253c.66.66,1.31.66,1.31,1.31.66.66,3.3,1.32,3.3,1.32a.9.9,0,0,1,1.27,0s0,0,0,0l.78,1.38a15.11,15.11,0,0,1,.66,2.63c.66.66,0,1.32.66,2.64.66.66.66,2.63,2,3.29s2,2,2.63,2.64a9.45,9.45,0,0,0,2,1.31,20.57,20.57,0,0,0,2,3.3c.66.66,0,2,.66,2.63a4,4,0,0,1,.66,2.64c.66.66,2,3.29,2.63,3.95.66,0,.66,2,.66,2v2.63c0,.66-.66,2-.66,2.63l-1.31,1.32a2.32,2.32,0,0,1-.66,1.32l.66.66A.64.64,0,0,0,273,259v-2l1.31-1.31A9.34,9.34,0,0,0,275.6,253V250.3a22,22,0,0,0-2-4,9.45,9.45,0,0,1-1.31-2H273c1.31,0,2.63-.66,3.95-.66h5.27a20.42,20.42,0,0,1,5.93-.66,6.85,6.85,0,0,1,2.63.66l2.63,1.32.66.66h-.66c.66,0,.66,1.31.66,1.31l-1.31,1.32a9.49,9.49,0,0,0-2,1.32c-.66.66-2.63,2.63-3.29,2.63a3.4,3.4,0,0,1-2.64,1.32,13.25,13.25,0,0,0-3.29.66H278.2s-2.64,0-2,.66,1.32,1.31,2.63.66c1.32,0,4-.66,4.61-.66s4-2,5.27-2.64c1.32-1.31,3.3-2,4-3.29.65-.66,1.31-2,2-2h2a9.45,9.45,0,0,1,2-1.31s.66,1.31,1.32,1.31a2.42,2.42,0,0,1,2,.66v2s0,2.63.66,3.29c.65,1.32,1.31,3.95,2,4.61,0,1.32,2.64,2.64,2.64,3.3.66.65,2.63,4,3.29,4.61l3.29,3.29,1.32,2s1.32,1.31,1.32,0-3.3-4-4-4.62c-.66-1.31-2.64-3.29-3.3-4.61s-2-3.29-3.29-3.95c-.66-1.32-2-2.63-2-4s-1.31-2-.66-3.29a3.2,3.2,0,0,0,0-2.64l1.32.66a8.07,8.07,0,0,1,1.32,2c0,.66,1.32.66,1.32,2a4,4,0,0,1,.66,2.64c0,.66,1.31-.66,2,.66.66.65.66,1.31,1.32,2a6.45,6.45,0,0,1,2,.66c0-.66-1.31-2.63-2-2.63a26.91,26.91,0,0,0-2.64-2,9.72,9.72,0,0,1-1.31-2.64c0-.65-.66-1.31-.66-2l1.32-1.32,2-.66c.66,0,3.29,0,2.64-.66,0-.65-.66-.65-1.32-.65H310s2-2,2-3.3v-7.9c-.66-.66,0-1.32-.66-.66a2.42,2.42,0,0,0-.66,2v6.58c0,.66-.66,1.32-1.32,2,0,.66-1.31,1.32-2,1.32a.65.65,0,0,1-.66-.64v0a2.32,2.32,0,0,0,.66-1.32,9.21,9.21,0,0,0-2.64-1.32l-1.32-4.61-2.63,1.32-1.32.66a2,2,0,0,1-1.31.66c-.66,0-.66-.66-2-.66a4,4,0,0,0-2.64-.66c-.65,0-2-1.32-2-1.32h5.27l-.66-1.32h-2a9.7,9.7,0,0,0-3.95.66,5,5,0,0,0-2,1.32c-.66.66-1.32.66-2.64.66a35.78,35.78,0,0,0-4.61.66,26.12,26.12,0,0,0-3.95,1.31h-4c-.66,0-2-.65-2.64-.65v-.66a9.75,9.75,0,0,0-1.32-2.64l-2-1.31s-1.32-1.32-1.32-2-.66-.66-.66-1.32c-.66-.66-1.32-2-2-2.63a15,15,0,0,0-.66-2.64V224c0-.66.66-1.32.66-2l-1.32-1.31a2.29,2.29,0,0,0-1.32-.66c-.66,0-3.95.66-3.95.66s-.66,0-2-1.32a6,6,0,0,0-3.29-2c-.66-.66-2.64-1.31-3.29-2s-3.3-1.32-4-2l-.65-.66a6.72,6.72,0,0,1-2-.66,2.26,2.26,0,0,1-.66-1.31c-.66,0-.66-.66-1.32-.66-1.31-.66-.66-.66-2-.66l-3.95-2a9.45,9.45,0,0,1-2-1.31,2.42,2.42,0,0,0-2-.66,2.26,2.26,0,0,1-1.31-.66h3.29c.66,0,4.61,0,5.93,1.32,1.31.65,2,.65,2,1.31.66,0,.66,1.32.66,1.32V212a3.23,3.23,0,0,0,2,.66,2.32,2.32,0,0,0,1.32.66h1.31c.66-.66,1.32,0,2-.66s1.32-1.32.66-1.32h-4.61a2,2,0,0,1-.66-1.31l-.66-1.32v-3.29s-.66-.66,0-.66l1.32-1.32.66-.66c5.92,2,9.22,2.64,10.53,2,4-2,4-3.95,5.27-5.27h0c.66-.66,2,0,2.64,1.32a7.06,7.06,0,0,0,3.29,1.31c.66,0,.66,0,2,.66s0,.66,2,2c1.32,1.32,2,0,2.64,0,.66-.66,2,.66,2,.66l.66,1.31c.66,1.32,0,.66,1.32,1.32s2-.66,3.29-.66c.66,0,1.32-.66,3.3-.66a24,24,0,0,1,3.95.66l2.63,1.32a8.11,8.11,0,0,0,3.3,1.32c1.31,0,.66,0,2,.66a37.77,37.77,0,0,1,4,2.63,32.25,32.25,0,0,1,3.29,1.32c1.32.66,4.61,4,4.61,4a9.28,9.28,0,0,0,1.32,2.63,45.48,45.48,0,0,0,3.29,4.62s3.29,1.31,4.61,2,3.29,1.32,4.61,2.64c1.32.65,4.61,2.63,5.93,3.29a19.7,19.7,0,0,0,5.27,2.63h2.63c1.32,0-.65,0-1.31-.65a11.24,11.24,0,0,1-3.3-1.32,21.09,21.09,0,0,1-4.61-2.64,4.62,4.62,0,0,0-2.63-1.31,28.68,28.68,0,0,0-4.69-2.7,6.94,6.94,0,0,1-2.64-.66s-3.95-2.63-4.61-3.29c-.66,0-.66-1.32-1.32-1.32s-1.31-2-1.31-3.29-2.64-4-4-4.61c-1.31-1.32-2.63-2-3.29-2.64a17,17,0,0,1-3.29-1.31,5.74,5.74,0,0,0-3.95-1.32c-2.64-.66-2.64-2-2.64-2a9.49,9.49,0,0,0-1.32-2c0-.66-5.27-2-6.58-1.32-.66.66,0,1.32-.66.66s-1.32,0-2,0-1.31.66-2,.66h-1.32a2.32,2.32,0,0,1-1.32-.66l.66-1.32s.66-.66,0-.66a.91.91,0,0,0-1.29,0l0,0h-2a2.32,2.32,0,0,1-1.32-.66l-1.32-1.31c-.66-.66-2.63,0-2.63,0l-1.32-.66c-.66,0-.66-1.32-.66-1.32s0-.66-1.32-.66h7.91c1.32,0,15.81-.66,17.78-.66,2,.66,4.61.66,5.93,1.32h3.29c.66,0,.66,0,1.32.66,1.32.66,1.32,1.32,2,1.32a9.25,9.25,0,0,1,4,1.31,9.55,9.55,0,0,1,2.63,1.32,31.52,31.52,0,0,1,3.3,1.32,13.43,13.43,0,0,0,4,1.32,9.52,9.52,0,0,0,2.63,1.31,26.48,26.48,0,0,1,4.62,1.32c1.31,1.32,6.58,3.29,6.58,3.29l2,2a21.23,21.23,0,0,0,3.29,2,18.53,18.53,0,0,0,3.29,2.63c.66,1.32,2.64,2.63,3.3,4a9.19,9.19,0,0,0,2.63,2.64s3.95,2,3.95,2.63c.66.66,4.62,3.29,5.27,4.61l4.61,4.61A84.47,84.47,0,0,1,363.7,245a14.74,14.74,0,0,0,2.64,3.29l2,2,2,2,2.63,1.32a12,12,0,0,1,2.64,2s.66,2.63,1.32,3.29a41.07,41.07,0,0,1,4.61,1.32,17.76,17.76,0,0,1,2.63,3.29,8,8,0,0,0,3.3,3.29,6.59,6.59,0,0,1,2.63,3.3c.66.66.66,1.31,1.32,2a9.28,9.28,0,0,0,2.63,1.32s3.3.66,3.95,1.32.66.66.66,1.31.66.66,1.32,0c0-.65,0-1.31-1.32-2-.66-.66-4-1.32-5.27-2-1.31-1.31-4-3.95-5.27-4.61-.65-1.32-3.29-3.95-3.95-5.27s-3.29-3.29-4.61-3.95c-2-.66-3.29-2.63-3.95-4a45.27,45.27,0,0,0-5.93-3.95c-1.32-1.32-5.27-4.61-5.93-5.93a73.69,73.69,0,0,0-6.58-8.56c-1.32-2-5.93-5.27-6.59-5.93a8.07,8.07,0,0,1-2-1.32V226s-.66-2-1.31-1.32c-.66,1.32,0,2-.66,1.32a2,2,0,0,0-1.32-.66,14.76,14.76,0,0,1-4.61-4l-4.61-4.61c-1.32-1.31-.66-2-2-2.63a5,5,0,0,1-3.29-1.32,14.42,14.42,0,0,0-3.29-2.63,17.1,17.1,0,0,1-3.3-1.32,8,8,0,0,0-3.29-1.32,13.25,13.25,0,0,1-3.29-.66,12.58,12.58,0,0,0-2.64-2c0-.66-2.63-1.32-2.63-1.32m-38.21,38.2h2c.66,0,3.29-1.31,4.61-1.31.66,0,4-.66,4-.66H288a6.45,6.45,0,0,1,2-.66h1.32s1.32.66,1.32,1.32,2,0,2,0a3.28,3.28,0,0,1,2,.65c.66,0,.66.66,0,1.32h0a3.21,3.21,0,0,1-2,.66,28.23,28.23,0,0,0-3.29-1.32,6.51,6.51,0,0,0-2.64-.66,13.16,13.16,0,0,1-3.29.66h-7.9c-2,.66-3.3.66-3.3,0ZM98.35,270.06c0,.66-1.32,1.31-1.32,1.31a2.29,2.29,0,0,1-1.32.66h0a.65.65,0,0,1-.64.66h0a7.11,7.11,0,0,1-4.61,3.95,5.65,5.65,0,0,0-4,2h0c.66-.66,1.32-1.32,1.32-2l.66-2a9.49,9.49,0,0,0,2-1.32,9.49,9.49,0,0,1,2-1.32,9.4,9.4,0,0,1,2.6-1.28c.66,0,1.32-1.32,1.32-1.32a2.91,2.91,0,0,0,2,.66h0M35.11,274H33.8c-1.32,0-2.64,1.32-3.3,2,0,1.32-3.95.66-3.95.66h0a9.45,9.45,0,0,0,2-1.31c.66,0,2-.66,2.63-.66a2.9,2.9,0,0,0,2-.66h2m62.58-29.64h0c-.66.66-1.32,1.32-2,1.32H94.39s0-1.32.66-1.32l.66-.66ZM74.63,224.61h0a74.64,74.64,0,0,0-10.53,1.32v-.66c0-.66,2-1.32,2-1.32h7.22c0,.66,1.31.66,1.31.66m10.54-55.33c-.66,0-1.31,1.32-1.31,1.32a2,2,0,0,0-1.32.66c-.66,0-1.32,1.31-1.32,1.31s-1.32.66-1.32,0a9.45,9.45,0,0,0,2-1.31l.66-.66,1.32-.66s2-1.32,1.31-.66m233.17-9.22c0-.66-.65-2,0-2.64a2.9,2.9,0,0,0,2-.66v1.32l-2,2m-3.95,0h0c0-1.32.66-2,.66-2.64.66-.66.66-.66,1.32-.66a9.49,9.49,0,0,0-1.32,2v1.32h-.66m-89.58,38.2L223.52,197v-.65h0c2.63,0,4-.66,5.26-.66a16.09,16.09,0,0,1,9.88,3.29h0a2.91,2.91,0,0,1-.65,2l-2,.65h-1.32l-1.31-1.31a1.29,1.29,0,0,0-1.26-1.32h-.06a6.72,6.72,0,0,0-2,.66h-2s-2.64,0-2.64-.66l-.66-.66m3.3-21.74a9.33,9.33,0,0,1-4,1.32c-1.31,0-3.29.66-3.95,0s0-1.32.66-2h4.61c.66,0,.66.65,1.32,0,1.32,0,0-.66,1.32,0l.65.65H228m-13.18,27.67c.66,1.32,2,2,2,2.63v.66c0,.66,0,.66-.66.66a2.42,2.42,0,0,0-2,.66h-2s-2,0-2.64-.66h-3.29l-.66-.66a2,2,0,0,0-.66-1.31,2.29,2.29,0,0,0-1.32-.66,6.45,6.45,0,0,0-2-.66h-2.49c-.65,0-3.29-1.32-4-1.32l-.66-.66h7.91l1.31.66a3.21,3.21,0,0,1,2,.66c.66.66,0,.66.66,1.32,0,0,1.32.66,1.32,1.31l1.31.66h1.32c0-.66.66,0,0-1.31a2,2,0,0,1-.66-1.32s0,.66-2-.66v-.66H209a.91.91,0,0,0,1.29,0l0,0a.66.66,0,0,1,.64-.66h2.66c.65.66,1.31.66,1.31,1.32m-23-14.49c.66.66,1.32.66,2,1.32v2.63L193.3,195v1.32a.64.64,0,0,0-.66.62v0c-.66-.65-2-1.31-2.64-2a2.26,2.26,0,0,0-1.31-.66v-2.64l.65-1.31a5,5,0,0,1,2.64-.66h0m4,12.51c-.66,0-3.29-.66-4-.66s-.66-.65-1.32-.65h-1.32c-.65-.66,0-.66-.65-1.32l-2-2a2.26,2.26,0,0,1-.66-1.31h0a2.11,2.11,0,0,0,1.32.65l2.63,1.32c.66.66,0,0,.66,1.32,1.32.66.66,0,1.32.66a2.32,2.32,0,0,0,1.32.66.64.64,0,0,1,.65.63v0s2.64.66,2,.66m4.61,8.57s-1.32-1.32-1.32-2-.65-.66-1.31-.66-1.32-.66-2-1.32h.66a2,2,0,0,1,1.32.66h3.29l1.32.66,1.31.66.66.66a2.29,2.29,0,0,1,1.32.66,6.45,6.45,0,0,1,.66,2v2c.66.66.66,2,1.32,2.63a2.32,2.32,0,0,0,.66,1.32v.66A2.31,2.31,0,0,1,207,218a2.29,2.29,0,0,0-1.32-.66H205v-2c0-.66-2-2-2-2.64s-.66-.66-1.32-1.32l-1.32-.65M225.47,218h0l-1.32,1.32a14.68,14.68,0,0,0-2.63-.66,2.32,2.32,0,0,1-1.32-.66h-3.29a2.32,2.32,0,0,0-1.32.66,6.85,6.85,0,0,1-2.63.66c-.66,0-2-.66-2.64-.66a2,2,0,0,0-.66-1.32,6.45,6.45,0,0,0-.66-2,5.29,5.29,0,0,0-.65-2V212l-.66-2,.66-.66,2,.66,2,.66a2.26,2.26,0,0,0,1.31-.66l1.32-.66h1.32a2,2,0,0,0,1.32.66h1.31a.64.64,0,0,1,.66.64v0c1.32,1.31,2,3.29,2.64,3.29,1.32,1.32.66,0,3.29,4m15.15,30.3-.66-.66h1.32c.66,0,0,0-.66.66h0m-5.93-11.2,1.32-1.31h1.32s1.31.65,2,0c.66,0,.66-.66,1.32-.66h0v2.63c-.66.66-.66.66-1.32.66H238a8.91,8.91,0,0,0-3.3-.66s.66,0,0-.66m-15.15-2,.66.66,4,2h.66l.66.66s.66.66-.66.66a2.26,2.26,0,0,1-1.31-.66s-2,0-2.64-.66a2,2,0,0,1-.66-1.32ZM215,226.5a2.45,2.45,0,0,1-2.63-2l-2-2,.69-.5h2c.66,0,1.31-.66,2-.66a6.7,6.7,0,0,0,2-.65h2a.64.64,0,0,1,.66.62v0a9.34,9.34,0,0,1,2.64,1.32h1.32a2.3,2.3,0,0,1,.65,1.32,2.32,2.32,0,0,0,.66,1.32l.66.66.66.65h3.29a5,5,0,0,1,2,.66c1.32.66.66,0,1.32,0H234c.66,1.32,2,2,2.64,3.3l1.32,1.31v3.3a.65.65,0,0,0-.66.64v0c0,.65-.66.65-.66,1.31-.66,0-.66.66-2,.66h-3.29s-1.32-1.32-2-.66a.65.65,0,0,1-.64.66h0l-.65-1.32a2.26,2.26,0,0,1-.66-1.31c0-.66,0-.66.66-1.32,0-.66,2-.66,2-.66a2,2,0,0,0,1.32-.66c.66,0,0-.66,0-.66h-2a2.26,2.26,0,0,0-1.31.66h-3.3l-.66-2a2.32,2.32,0,0,0,.66-1.32,2.32,2.32,0,0,1,.66-1.32.65.65,0,0,0-.64-.66h0a2.26,2.26,0,0,1-1.31-.66h-2.64c-.66,0-.66,1.32-.66,1.32l-.66.66-.66-.66a2.7,2.7,0,0,1-3.73-.79,2.94,2.94,0,0,1-.27-.53M176,200.24h2a2.26,2.26,0,0,1,1.31-.66.64.64,0,0,1-.65-.63V197.6c.65,0,1.31.66,2,.66a2.32,2.32,0,0,0-.66,1.32c.66,0,1.32-.66,2-.66s0,1.32,0,1.32h1.32a2.9,2.9,0,0,1,2,.66s2.64,2,3.3,2.63,2,.66,2,2,.66,1.31.66,1.31a9.28,9.28,0,0,1,2.63,1.32,3.23,3.23,0,0,1,.66,2l2,2c.66.66,1.32.66,1.32,2s0,1.32.66,2c0,.65,2.63.65,2.63.65a2.44,2.44,0,0,1,1.32,2c0,.66.66,2,1.31,2a.64.64,0,0,0,.66-.64v0c.66,0,.66,1.31.66,1.31l-.66.66,1.32,1.32,2,2.64a22,22,0,0,1,4,2c.66.66,1.32.66,3.29,1.32a4.94,4.94,0,0,1,2,2s-4.61-.65-5.93-.65a2.91,2.91,0,0,1-2-.66l-2,.66-2,.65a8.36,8.36,0,0,1-3.95-2,1.29,1.29,0,0,1-1.32-1.26v-.06a2.32,2.32,0,0,1-.66-1.32c0-.65,1.32-2,1.32-2s1.32-2,2-2,.66,0,1.31-.66a2,2,0,0,0,1.32-.66.64.64,0,0,1-.66-.62v0h0a.64.64,0,0,0-.66.62v0s-1.31.66-1.31,1.32c0,0-.66,1.32-1.32,1.32l-1.32,1.32h-1.31a2.3,2.3,0,0,0,.65,1.31l-.65,1.32h-2a9.21,9.21,0,0,0-2.64-1.32,3.21,3.21,0,0,1,.66-2c0-.66,1.32-1.32,1.32-1.32s2-.66,2-1.32v-3.29c.66,0,2-1.32,1.31-1.32-1.31.66-1.31,0-2,0a2,2,0,0,1-1.32.66l-.66,1.32v2l-1.32,1.32a9.49,9.49,0,0,0-2,1.32c-.66.66-.66.66-1.32,0l-2-2a9.72,9.72,0,0,1-2.64-1.31,9.75,9.75,0,0,1-1.32-2.64c0-.66-2-3.29-1.31-4v-3.95a8,8,0,0,0-.66-3.3,8.07,8.07,0,0,1-1.32-2,9.49,9.49,0,0,0-2-1.32s-2-1.32-1.31-2l1.31-1.31.66-.66h-2v.66h-.66c0,.66-.66.66-.66,1.31a6.72,6.72,0,0,0,.66,2l1.32,1.32A1.4,1.4,0,0,0,180,206.2c.66.65,1.32,1.31,1.32,2a2.32,2.32,0,0,0,.66,1.32v2s-.66,0-1.32-1.31c-.66-.66-1.32-2-2-2.64s-.66-2-1.32-2L176,204.25a.65.65,0,0,1-.66-.64v0l-.66-1.32v-2Zm-44.79-27.67h0a8.07,8.07,0,0,1-1.32,2,2,2,0,0,0-1.31.66c-.66,0-.66,0-.66-.66a.66.66,0,0,1,.64-.66h0c.65,0,1.31-1.32,1.31-1.32v-.66a2.29,2.29,0,0,1,1.32.66m-18.44-3.29s-.66-.66-2,0h-2c.65,0,2-.66,2.63-.66a7.06,7.06,0,0,1,3.29.66h2V170l-.66.66h0a5.08,5.08,0,0,1-2-.66c-2-.66-1.32-.66-1.32-.66m-10.54,13.17a3.21,3.21,0,0,0,.66-2l1.32-1.32c.65-.66.65-.66,1.31-.66h0a2.44,2.44,0,0,0,2,1.32c1.32,0,2,.66,2.63,2a29.29,29.29,0,0,0,2,3.3s4.61.66,5.93,0a26.38,26.38,0,0,1,4.61-1.32l5.27,1.32c1.31,0,2.63.66,3.29.66h0c-.66,0-1.32.65-2,1.31-.65,0,0-1.31-.65-1.31a2,2,0,0,0-1.32-.66,6.45,6.45,0,0,1,.66,2,1.42,1.42,0,0,1-1.32,1.32h0l-1.32.66H120a9.49,9.49,0,0,1-2,1.32s-1.32.66-1.32,1.31L115.47,193c-.66.66-.66.66-.66,1.32v1.32a.64.64,0,0,0,.66-.64v0a9.49,9.49,0,0,0,1.32-2l1.32-1.32c.66,0,.66,0,1.31-.65l1.32-.66a2.32,2.32,0,0,1,1.32-.66h1.32c.66,0,.66,0,.66.66l-.66.66c-.66,0-2.64,2.63-2.64,2.63l-2,2.64a9.49,9.49,0,0,1-1.32,2h-8.56c-4,0-5.27-1.32-7.91,0a12.05,12.05,0,0,1-5.93,1.3h-2.6v-2A7.19,7.19,0,0,0,93.74,195c1.31-2,0-2,0-2s1.31-3.29,2-4.61c0-.66.66,0,.66,0a5,5,0,0,1-.66,2c-.66,1.31,0,1.31,0,1.31a2.26,2.26,0,0,0,.66-1.31,4,4,0,0,1,.66-2.64c.66-.66.66-1.32,2-2a15.14,15.14,0,0,0,3.29-3.3m0-1.31L101,182.45c0,.66,0,.66-.66,1.32-.66,0-.66.66-1.31.66s0-.66,0-.66l1.31-1.32,1.32-1.31c-.66,0,.66-.66.66,0m23,13.83c.66,0,.66,2,.66,2l2,.66h-7.25a1.42,1.42,0,0,0,1.32-1.31c.66-.66.66-1.32,1.32-1.32s.66,2.63.66,2.63h.65A6.53,6.53,0,0,0,124,195v-2h0l1.31-.66a2,2,0,0,1-.66,1.32L123.38,195h2m11.86-5.27s.66,0-.66.66a30,30,0,0,1-3.29,1.31h-2a6.72,6.72,0,0,0-2,.66c-.65,0-.65,0-.65-.66,0-1.31,2.63-2,3.29-2a9.77,9.77,0,0,1,4-.66c.66,0,.66-.66,2-.66h0l-.66.66c.66,0,0,.66,0,.66M136,192.33l-2,1.32a2.32,2.32,0,0,1-.66,1.32l-.66.66a2,2,0,0,0-1.32.66h-.66a2,2,0,0,1-1.32-.66C128,195,128,194.31,128,194.31a2,2,0,0,1,.66-1.32,6.72,6.72,0,0,0,2-.66,6.51,6.51,0,0,0,2.64-.66,6.7,6.7,0,0,0,2-.65,2,2,0,0,1,.66,1.31m-7.24-20.42a2.24,2.24,0,0,1,1.31-.65h-.66c-.65.65-.65,1.31-1.31,1.31s-.66,0-.66-.66Zm-2.64,0-.66.66a14.68,14.68,0,0,1-2.63.66c-.66,0-1.32,0-.66-.66.66,0,.66-.66,1.32-.66s.66-.65,1.31-.65h.66l.66.65m1.32,7.91v.66a23.18,23.18,0,0,1-6.59-1.32c-.66,0-2-.66-3.29-.66a2,2,0,0,1,.66-1.32c0-.66.66-.66,1.31-.66s.66-.65,1.32-.65a5.07,5.07,0,0,1,2-1.32c1.32-.66,0,1.32,0,1.32l-1.32,1.31c0,.66,0,1.32.66,1.32a1.29,1.29,0,0,0,1.32-1.26v-.06l1.31-.66a2.29,2.29,0,0,1,1.32.66c0,.66,0,.66.66,1.32s0,0,.66,0v1.32M116.9,167.3h-3.29a3.87,3.87,0,0,1-2.64-.66c1.32.66,4,.66,5.93.66m4.61,2.64v.66l-1.32,1.31H116.9a.65.65,0,0,1,.63-.65h0c1.32-1.32,1.32-2,1.32-2h1.31a2,2,0,0,1,1.32.66m1.32,0H124a2.32,2.32,0,0,1-.66,1.32c-.66.65-.66-.66-.66-1.32h0m2.63-9.22h0c.66,1.31,1.32,2,2,2-.66-.66-2-1.31-2-2h0m5.27,21.07h-.66a2,2,0,0,0,.66-1.31l1.32-1.32h1.32a2.32,2.32,0,0,0-.66,1.32c-.66,0-.66,0-1.32.66l-.66.65m10.54,7.91c-.66.66-.66,1.32-1.32,1.32h-.66a.93.93,0,0,1,0-1.3l0,0a2.32,2.32,0,0,1,.66-1.32h0a1.42,1.42,0,0,0,1.32,1.32m12.52,9.88c-.66,0-1.32.66-2,.66s0-1.32,0-1.32H153l.66.66M151,196.94l-.66-.65a2,2,0,0,0-.66-1.32l.66.66A2.26,2.26,0,0,1,151,196.94Zm-39.5,24.37a2.36,2.36,0,0,0,1.32-.65l.66.65-.66,1.32a.65.65,0,0,1-.64.66h0a2.32,2.32,0,0,1-1.32-.66h-.66Zm5.93-.65h-1.32v-1.32a6.72,6.72,0,0,0,2-.66,2.26,2.26,0,0,1,1.31-.66v2a5,5,0,0,1-2,.66m0,4h0c.66,0,.66.66,0,1.32a2.36,2.36,0,0,0-1.32.65,8.36,8.36,0,0,1,1.32-2m4,1.32v-2a1.42,1.42,0,0,1,1.32-1.32l1.32-1.32a2.24,2.24,0,0,0,.65-1.31,2.91,2.91,0,0,1,2-.66.64.64,0,0,0,.66-.64v0c0,.66.66,1.32,0,2s-.66,1.31,0,1.31.66.66,1.32,1.32a4,4,0,0,0,.65,2.64v3.29a9.25,9.25,0,0,1-1.31,4c0,.66-1.32,1.32-1.32,2l-.66.66h-2.63v-3.3c0-.66-.66-1.32-.66-2a15,15,0,0,1-.66-2.64c-.66-1.32-.66-1.32-.66-2m11.86-12.52h0a2,2,0,0,1-1.32.66l-.66.66-1.32.66s-.66-.66-.66,0a.64.64,0,0,1-.62.66H128l.66-.66,1.31-.66a2.32,2.32,0,0,1,1.32-.66h0c.66,0,1.32-.66,2-.66M120.08,220a.65.65,0,0,1-.66-.64v0a2.32,2.32,0,0,1,.66-1.32l1.32-1.32H124c.65-.65.65-.65,1.31-.65s0-.66.66,0a.9.9,0,0,1,0,1.27l0,0h-1.32c-.65,0-2,0-2,.66s0,.66-.66,1.32a5,5,0,0,1-2,.66m-.66,3.29a.64.64,0,0,1-.62.66h0v-1.32h2a2.29,2.29,0,0,1-1.32.66m51.38-25c1.32-1.32,3.29-2,4-1.32h0v.66h-2l-1.32.66h-.66m-3.29,4h0c2-1.31,1.32-1.31,2-2a9.45,9.45,0,0,0,2,1.31h0v2l-.66.66c-.66.66-.66.66-1.32.66h-.65a.65.65,0,0,1-.66-.64v-.68l-.66-1.32M149,218c0,.66,1.32.66,0,2l-1.31.66-2.6,3.34s0,.66-1.31,2a13.88,13.88,0,0,1-4,2.63c-1.31.66-3.29,3.29-3.29,3.29a4.94,4.94,0,0,1-2,2c-1.31.66-4.61.66-4.61.66a5.15,5.15,0,0,1-3.29,0h0c.66-.66.66-1.32,1.32-2a2.39,2.39,0,0,0,.66-2c0-.66.65-1.32,1.31-2V226c0-.66,0-2.64-.66-3.3a2.42,2.42,0,0,0-.65-2v-3.3a.64.64,0,0,1,.62-.66h0l.66.66c0,.66.66.66,1.32.66a2.29,2.29,0,0,1,1.32.66c.66,0,.66-.66.66-1.32s-1.32,0-2-.66-.66-.65,0-.65c.66-.66,1.32-1.32,2-1.32a2.26,2.26,0,0,0,1.31-.66c.66-.66.66-.66.66-1.32a1.42,1.42,0,0,1,1.32-1.32c.66,0,1.32-.65,2-.65,1.31-.66,2.63-.66,4-1.32h-.66l-1.32,1.32a.9.9,0,0,0,0,1.27l0,0v3.3a2,2,0,0,0,.66-1.32,1.65,1.65,0,0,1,2.31-.33,1.29,1.29,0,0,1,.33.33v-1.32a.91.91,0,0,1,0-1.29l0,0,.65-.65,1.32-1.32,1.32-.66a1.44,1.44,0,0,0,2-.55l0-.11,1.32-1.32,2-.65,2.6,2.64a3.42,3.42,0,0,1-.66,3.29c-1.31,1.32-4.61,5.27-5.27,5.93m-27.66,31.62c0-1.32.66-2,0-2v-2c0-.66.66,0,1.32-.66.66,0-.66-.66-.66-1.32v-2c0-.66,0-2.63.66-3.29v-3.29c.66,0,1.32.66,2,.66,1.32,0,2.64-.66,6.59,0,1.32,0,2,.65,2.64.65l.65-.65,2.64-1.32c.66-.66,1.32-2,2-2.64,1.32-.66,2-2,2.64-2.63,1.32-1.32,2.63-3.29,4-4.61s3.29-2.64,3.95-3.3c1.32-1.31.66.66.66,1.32s1.32,2,1.32,2,2,.66,1.32,2c0,1.32-1.32,1.32-2.64,2a22,22,0,0,1-4,2l-2.63,1.31a22,22,0,0,0-4,2,11.18,11.18,0,0,0-3.29,1.32c0,.66-.66.66-.66,1.31-.66.66-.66.66-2,.66-1.32,1.32-3.3,4-3.3,4.61-.66,1.32-3.29,4-4,4-.66.65-4,3.29-4,4.61,0,.66-.66.66-.66,1.31-.66,0,0-.65-.66-2M117.37,255h0v2l.66.66c-.66.66-.66.66-1.32.66h0V257c0-.66,0-.66.66-1.31-.66-.66,0-.66,0-.66m-.66-17.13c1.32-.66,2.63-2,3.29-2h2v4.61c0,.65-.66,2-.66,2.63v2.64c0,.65-.66-.66-1.32-.66-.66-.66-.66-.66-.66-1.32V245a2.32,2.32,0,0,0,1.32.66c.66.65,0,1.31.66,2V249c0-.66-.66-.66-.66-1.32v-1.32h0V249c.66.66.66.66.66,1.32s.66.66.66,1.31a2.32,2.32,0,0,0,.66,1.32v1.32a.65.65,0,0,0-.66.64v0a.65.65,0,0,1-.64.66h-.68c0-.66,0-.66-.66-.66s-.66.66-1.31,0v-2c0-.66.65-.66,1.31-1.32a2.39,2.39,0,0,0,.66-2h0c-.66-.66-.66-.66-.66-1.32s-.66-2,0-1.32h.66v-.66l-.66-.65v-2h0v-1.32c0-.66-.66-.66-.66-1.32-2-1.31-2-2.63-2.63-3.29m-1.32-5.93c0-.66,0-1.31.66-1.31l.66-1.32c0-.66.66-.66,1.32-1.32s.66-1.32,1.31-1.32c0-.65.66-.65.66,0v2c0,.66.66.66,1.32.66l.66,1.32v4h-2a8.74,8.74,0,0,1-2.63,2,.65.65,0,0,0-.66.64v0c0-.66,0-.66-.66-1.31s-.66-3.3-.66-4m0-6.58V224s0-1.32.66-1.32h.66v.66l-.66,1.32Zm-13.83,2.63h0a2.42,2.42,0,0,1,.66,2c0,.66.66,0,.66,0v-1.32a5,5,0,0,0-.66-2c0-1.31,0-.65.66-1.31,0-.66.66,0,.66,0v2.63c0,.66.66,1.32,0,1.32,0,0-1.32,1.32-1.32,2v2c0,.66-1.32,1.32-1.32,2a4.88,4.88,0,0,1-.66,2c-.66.66.66,0,.66,0l.66-1.31a9.49,9.49,0,0,1,1.32-2c.66,0,.66,0,.66-.66v-1.32a6.45,6.45,0,0,1,.66-2,2,2,0,0,0,1.31-.66c.66,0,.66-1.32,1.32-1.32s0,1.32.66,1.32.66-.66.66-1.32v-1.32c0-.65,1.31-.65,1.31-.65l.66-.66c0-.66.66-.66,1.32-1.32,0-.66.66-1.32.66-.66v3.29a1.42,1.42,0,0,1-1.32,1.32.66.66,0,0,0,.64.66h0c.66,0,1.32,0,1.32.66s-.66,2-.66,2.63-1.32,2-2.64,2.64-2,2-2.63,2-2,1.32-2,1.32-3.29,2-3.29,2.64a2.26,2.26,0,0,0-.66,1.31h0l-1.32.66h0v-2.63c0-.66-2-2-2.63-2s.66-1.32.66-2,0-.66.66-.66a9.45,9.45,0,0,1,1.31-2c.66-.66,1.32-2.63,2-3.29a1.24,1.24,0,0,1-.27-1.73,1.15,1.15,0,0,1,.27-.27m-13.17,1.32c.66,0,1.31-.66,2.63-.66a.64.64,0,0,1,.66.64v0a6.72,6.72,0,0,1-2,.66c-.65,0-1.31,0-1.31-.66h0m3.29-15.81c0-.66.66-2,.66-2.63s-.66-2,0-2.64v-4.61c0-.66.66-.66.66-1.32a22.77,22.77,0,0,0,5.93-.66c5.92-1.31,7.9-.65,11.85,0h9.88c.66.66,0,.66,0,.66l-.66,1.32a2,2,0,0,1-.66,1.32L118,206.17s-1.32.65-1.32,1.31a.65.65,0,0,1-.66-.64v0l-.66-.65c-.66-.66,0-.66-1.31-.66h-.66a2.32,2.32,0,0,1-1.32-.66h-1.32s0,1.32.66,1.32l.66.65,1.32.66a.64.64,0,0,1,.66.64v.68a.64.64,0,0,0,.62.66h2v-.66a13.16,13.16,0,0,1,3.29.66c.66-.66-.66-.66-.66-.66a2.32,2.32,0,0,0,.66-1.32l1.32-1.31.66-1.32a.66.66,0,0,1,.64-.66h.68a.66.66,0,0,0,.64.66h0a8.32,8.32,0,0,0,1.31-2H126c.66-.66,0-.66.66-.66s.66,0,.66.66l-.66,1.32c-.66.66-.66,1.32-1.32,2s-.66.65-.66,1.31.66,0,.66,0h3.3c1.31,0,0-.66,0-.66l-1.32-.65.66-.66s2.63-2.64,3.29-2.64l1.32-1.32a2.42,2.42,0,0,0,2-.65c1.32-1.32,4-2.64,4.61-4s1.32-1.31,2-2l1.32-1.32a4.77,4.77,0,0,1,4,.66v1.32c0,1.31.66,1.31.66,1.31a2,2,0,0,0,.66,1.32c0,.66-.66.66-.66,1.32a6.45,6.45,0,0,1-.66,2,2.32,2.32,0,0,0-.66,1.32s.66.66.66,0a.64.64,0,0,0,.66-.64v0a2.26,2.26,0,0,1,.66-1.31s0-.66.66,0a6.7,6.7,0,0,1,.65,2v.66c-2,.66-4,1.32-6.58,2h-1.32V204.2l-.66.66c-2,.66-3.29.66-3.29,1.32-2,1.31-5.93,3.29-7.25,3.29-2,0-6.58,1.32-8.56,1.32a2.89,2.89,0,0,1-2,.65.64.64,0,0,0-.63-.65h0a2.11,2.11,0,0,1,.65-1.32c.66-.66,0-.66,0-1.32s-1.31.66-1.31.66a2.32,2.32,0,0,0-.66,1.32c0,.66,0,.66-.66,1.31h.66l-.66,1.32h0c0-.66,0-.66.66-1.32a2.32,2.32,0,0,0-1.32.66.65.65,0,0,0-.66.64v0c-2.63,1.32-5.27,2.64-5.93,2.64-2.63,0-15.8,5.92-18.44,5.92a35.78,35.78,0,0,1-4.61.66c0-.66.66-2.63,1.32-2.63l1.32-2s.65-1.31,1.31-.66l.66.66V220s1.32-.66,1.32-1.32v-1.32c-.66-.66-.66-2,0-2-1.32,0-.66-1.32-.66-2m-53.35-5.27c-.66-.66.66-.66,2-.66s1.32-.66,2.64-.66-1.32,2-1.32,2.64c-.66.66-.66,1.32-1.32,0a5.07,5.07,0,0,1-2-1.32m32.93-27s2,.65,2.64,0a14.68,14.68,0,0,0,2.63-.66,15,15,0,0,1,2.64-.66,5,5,0,0,0,2.63-1.32,14.54,14.54,0,0,1,3.29-2c1.32-.65,2.64-1.31,2.64-2,.66-.66.66,0,.66.66s-.66.66-.66,2a2.32,2.32,0,0,1,1.32-.66c.65,0,.65-.65.65-2,0-.66,0-.66,1.32-1.32a20.48,20.48,0,0,1,3.29-2s1.32-1.32,2-1.32,3.29-1.32,4.61-2c.66-.66,2,0,2,0l1.32-1.32c.65-.65,2,0,2.63,0s.66,0,.66.66a.65.65,0,0,1-.64.66h0c-.66.66-2,2-3.29,2l-2,2S99,174.55,99,175.21c0,0-.66,1.31,0,1.31s1.31-2,1.31-2,.66-1.32,1.32-1.32c.66-.66,2-1.32,2.64-2s2-1.32,2-2c.66,0,2,.66,3.29.66h2c.66,0,.66.66.66,1.32v2A6.93,6.93,0,0,1,109,174.5c-.66,0-2.64,0-3.3.66s1.32,0,.66.66h-2a1.4,1.4,0,0,0-1.32,1.31c-.66,0-1.32,2-2,2.64s-2.63.66-2.63.66a15,15,0,0,1-2.64.66H90.44l-1.31,1.31c-.66.66-3.3.66-4,.66a35.18,35.18,0,0,0-6.58,2,12.89,12.89,0,0,1-4.61.66c-.66,0-4.61.65-5.27.65a20.37,20.37,0,0,0-5.27,1.32c-2,0-2,0-2.64.66s.66,0,1.32,0a15,15,0,0,0,4.61-.66c2,0,4-.66,5.27-.66s3.29.66,4,0c.66,0,2.64-1.31,4-1.31,1.32-.66,3.3-.66,4-1.32s4-.66,5.27-.66c.65,0,1.31-.66,2-.66a3.23,3.23,0,0,1,2-.66h3.29a3.21,3.21,0,0,0,2-.66h1.31l-1.31,1.32A6.91,6.91,0,0,1,97,186.4c-.66.66-2,1.32-2.64,2a5,5,0,0,0-1.3,2.6,28.37,28.37,0,0,1-1.32,4l-.66,2v2H73.32c-1.32,0-1.32-.66-3.3,0a21.8,21.8,0,0,0-4,1.32,8.86,8.86,0,0,1-3.29-.66c-1.32-2,0-3.29-1.32-2s-1.32,3.3-8.56,4c-7.91.66-4,2-7.25,2.64A53.83,53.83,0,0,1,37,205.62h-.66C37,205,39,203,39,202.32c.65-1.31,1.31-4,2-4s5.29-4,6-5.32c.66-.66,3.95-2.63,3.95-3.29.66-.66.66,0,2-.66s4-1.32,4.61-2c.66,0,2-1.31,2-.66s-1.32,1.32-1.32,2V189c0,.66-1.32,2.63-.66,2s0,.65,0,.65,1.32-1.31,1.32-2a8.82,8.82,0,0,1,2-3.3c.66-.65,2.64-1.31,3.3-2a11.39,11.39,0,0,0,4.61-2.64c.66-.65,2.63-.65,2.63-.65M99,168.62a31.44,31.44,0,0,0-4.62,2,20.48,20.48,0,0,0-3.29,2c-.66,0-3.29,2-4,2a2.42,2.42,0,0,1-2,.66c-.66.66-4.61,2.63-5.27,3.29s-4,1.32-4.61,1.32c-1.31,0-4,.66-5.27.66a2.39,2.39,0,0,0-2,.66.64.64,0,0,0,.66-.64v0c.66-.66,2.63-1.32,3.29-2a11.16,11.16,0,0,1,4-2c.66,0,3.3-2,3.3-2a7,7,0,0,0,3.29-1.32c.66,0,4-2,4.61-2s.66,0,.66.65v1.32c.66,0,0-.66.66-1.32a5.06,5.06,0,0,1,1.31-2.63L91.1,168h2c1.31,0,2,.66,3.29,0a5,5,0,0,1,2.64.66c0-.66.65-.66,0,0m8.56-9.22c0,.66-.66.66-1.32,1.32a9.3,9.3,0,0,1-2.65,1.24,3.23,3.23,0,0,0-2,.66c0,.66-.66.66-.66,1.32a2.32,2.32,0,0,1-1.32-.66.66.66,0,0,1,.64-.66h0c.66-.66.66-1.31,1.32-1.31a2,2,0,0,1,1.32-.66,2.32,2.32,0,0,0,1.32.66c.65.65.65,0,.65-.66s1.32-1.32,1.32-1.32,1.32-.66,1.32,0m2.63,3.95h0l-.66.66h-4c-.66-.66-1.31-.66-.66-1.32s1.32-1.31,2-1.31a1.4,1.4,0,0,1,1.32,1.31c.66,0,2.63-.66,2,.66m1.32-4.61V162c0-.65-.66-.65-.66-1.31a1.27,1.27,0,0,1,.2-1.77,1.17,1.17,0,0,1,.46-.23h0m10.52,4h0c-1.32,1.32-4,1.32-4,1.32l-2-1.32Zm7.24-.66a.64.64,0,0,1-.65-.63v0a11.42,11.42,0,0,1-2.64-2c0-.66.66-.66.66-1.32,1.32.66,2,2,2.63,2.64V162m6.59,13.18v1.31h-.66a2.26,2.26,0,0,1-.66-1.31v-1.32c.66.66,1.32.66,1.32,1.32M151.7,137H151a3.23,3.23,0,0,0-2,.66,6.72,6.72,0,0,0-2,.66h0l.66-1.32.66-.65a2.3,2.3,0,0,1,1.31.65c0-.65,1.32-.65,2,0m2.63,1.32c.66,0,2,1.32,2,1.32l1.32.66c0,.66,1.32,2,1.32,2v1.32a2.29,2.29,0,0,1-1.32.66,32.66,32.66,0,0,1-11.2-3.95V139c.66-.66.66-.66,1.32-.66s2-1.32,3.29-1.32h.66c.66,0,2,1.32,2.63,1.32m7.25,3.3a2.85,2.85,0,0,1-.66,2h0l-.66-.66-.66-.66-.65-1.31a2.32,2.32,0,0,1-.66-1.32l-2-.66a2.29,2.29,0,0,0-1.32-.66c-.66,0-.66-.66-1.31-.66s-.66-.66-1.32-.66H153c.66,0,2-1.31,2-1.31h2c.66,0,.66,0,1.32.66s.66.65.66,1.31,0,1.32.65,1.32c.66.66.66,1.32,1.32,1.32h.66v1.32m34.91,52.69V195a.66.66,0,0,0,.64.66h0a2.41,2.41,0,0,1,2,1.31,2.32,2.32,0,0,1,.66,1.32l1.32,1.32a2.32,2.32,0,0,0,.66,1.32l1.32.65a.64.64,0,0,1,.65.63v0h0l-.65-.66-.66-.65c-.66,0,.66-.66-2-.66h-2.63l-1.32-.66a2.32,2.32,0,0,1-.66-1.32l-.66-1.32v-4.61c.66,2-.66,2,1.32,2m17.13,7.24h0a2.32,2.32,0,0,0-1.32.66H209a2.26,2.26,0,0,0-1.31-.66c-.66-.65-.66,0-.66-.65l-.66-.66-1.32-.66V199s-.66-1.32-1.32-1.32a2.26,2.26,0,0,1-1.31-.66l-.66-.65V195a2.32,2.32,0,0,1,1.32-.66c.65,0-.66-1.32,1.31.66l2,2a.9.9,0,0,0,0-1.27l0,0V195a2,2,0,0,0,1.32.66l2,1.31,2,2.64,2,2h0M224.92,172l.66-.65h2c1.31.65,2,0,2,.65s.66.66,0,1.32h-5.27A2,2,0,0,1,225,172h0m12.52-8.56h0c.66,0,1.31-.66,1.31,0,.66.66,1.32.66,2,1.32l1.32,1.32h-6.59a6.7,6.7,0,0,0-2,.65,2.29,2.29,0,0,1-1.32.66h-1.32a.64.64,0,0,0,.66-.64v0c1.32-.65,5.93-3.29,5.93-3.29m5.27-3.95a5.07,5.07,0,0,1,2.63-1.32h2a21.23,21.23,0,0,0,3.29,2,5,5,0,0,0,3.29,1.32,8.4,8.4,0,0,1,4,1.31L261,164s1.32.66,1.32,1.32c0,0,.66.66-.66.66h-3.3c-1.31,0-2,0-2.63.65h-4.61a2.91,2.91,0,0,0-2,.66l-2,.66c-.66,0-1.32-.66-2-.66h-2s-1.32-.66-1.32-1.31l-1.32-1.32c-.66-.66-.66-.66-.66-1.32s-.66,0,0-.66c1.32-2,2.64-2.63,2.64-3.29m24.54,3.3V164h-2c-.66,0-1.32-1.32-2-1.32a7.08,7.08,0,0,0-4-1.31,28.17,28.17,0,0,1-3.29-.66c-.66,0-1.32-.66-2.63-1.32-1.32,0-2.64-1.32-3.3-1.32l-1.32-1.32s-.65,0-.65-1.31v-.66c0-.66,0-.66-.66-.66.66-.66,2-2,2.63-2a19.7,19.7,0,0,1,5.27-2.63h2l2.63,1.32c1.32.66.66.66,2,2a8.36,8.36,0,0,0,1.32,2l1.31,1.32c.66.65,1.32,1.31,1.32,2s.66,1.32,1.32,2.64v2M277.51,168h-5.27l.66-.66h-2s-2,0-2-.66c-.65-.65-1.31-1.31-.65-1.31h2.63a5,5,0,0,1,2.63,1.31,2.42,2.42,0,0,0,2,.66h3.29a2.26,2.26,0,0,0-1.31.66M259,170.6c-1.31,0-5.27.66-7.9.66,0,0,0-.66-1.32-1.32l-1.32-1.32-.65-1.32a.64.64,0,0,1,.62-.66h3.33c.66,0,1.32-.65,2-.65a2,2,0,0,1,.66,1.31s1.32,2.64,1.32,1.32v-2l1.32-.65H265a3.28,3.28,0,0,0,2,.65,2,2,0,0,1,1.31.66v1.32h0a13.43,13.43,0,0,1-3.95,1.32c-.66,0-3.29.66-5.27.66m-9.88.66h-9.88c-.66,0-.66,0-2-.66s-1.32,0-2-.66a2,2,0,0,0-1.32-.66h-.65l-.66.66a8.07,8.07,0,0,0-2-1.32,2,2,0,0,0-1.32-.66l.66-.66,1.32.66.66-.66a3.23,3.23,0,0,1,2-.66h2c.66,0,3.29-.65,4-.65h4.61c.66,0,1.32.65,2,1.31.66,0,1.32,1.32,1.32,1.32l.65,1.32a2.32,2.32,0,0,0,.66,1.32h0m-5.92,7.9h0a2.34,2.34,0,0,1-1.32-2l.66-.66Zm85.62,18.44c-.66,0-1.31-.66-2-.66a6.85,6.85,0,0,1,.66-2.63h2.63c.66,0,.66.66,1.32,1.32,0,.66-.66,2-1.32,2H328.9m-57.3-11.85c-1.32-1.32-4.61-.66-5.93-1.32a15.49,15.49,0,0,0-5.27-1.32h-.66c.66,0,1.32,0,.66-.66s-.66-1.31.66-2h6.59a6.85,6.85,0,0,0,2.63-.66h2.64c1.31,0,1.31-1.32,2-1.32h2.64c1.31,0,2,1.32,2.63,1.32s1.32,1.32,2,1.32c.66-.66,3.29,0,3.29,0l.66-.66a8.07,8.07,0,0,0-2-1.32c-.66-.66,0,0,0-.66s2.64-.66,4-.66c.65,0,4.61.66,4.61.66a14.33,14.33,0,0,0,3.95.66,4,4,0,0,1,2.63.66h2a2.29,2.29,0,0,1,1.32.66,5.06,5.06,0,0,1,2.63,1.31,9.49,9.49,0,0,0,2,1.32l4,1.32a4.94,4.94,0,0,0,2,2,32.42,32.42,0,0,0,3.3,1.32A9.3,9.3,0,0,1,319,189a5.07,5.07,0,0,1,2,1.32c.66.66.66.66.66,2h0c0,.66-.66.66-.66,1.32-.66.66-3.29,1.32-4.61,1.32a24.59,24.59,0,0,0-5.93-1.32c-1.32,0-14.49-2-16.47-2-1.31-2-20.42-5.27-22.39-5.92M288,195h-7.25a17,17,0,0,0-3.29-1.32c-.66,0-4,.66-4.61.66s-4,.66-5.27,0c-2,0-4.61-.66-5.93-.66s-3.95.66-5.27,0c-1.32,0-4-.66-4.61-.66h-9.22a5,5,0,0,1-2.64-1.32c-.66-.65-2-.65-3.29-1.31h-4a19.42,19.42,0,0,1-4-2s-2-2-2.63-2a3.28,3.28,0,0,0-2-.65h6.59a8.47,8.47,0,0,1,4,.65,15.75,15.75,0,0,0,5.93,1.32c2,0,2.64.66,6.59.66,4,.66,6.58,1.32,7.9,1.32a24.77,24.77,0,0,0,6.59-.66c2,0,5.27-.66,5.93,0,.66,0,9.22.66,9.88,1.32,1.31,0,7.24,2,7.9,2h2l.66.66v2Zm20.41,5.93c-1.31,0-2.63,0-3.29-.66s-3.29-1.32-3.29-1.32c0-.66-1.32-.66-.66-1.32h5.27c.66,0,4,2,5.93,2.64h-2c-.66,0-.66.66-2,.66m-297-29.67-1.32-1.32H3.5a6.55,6.55,0,0,0-2.64.66c-.66.66-.66,1.31.66,1.31.66,0,2-.65,3.3-.65H11.4m-1.32-1.32H11.4l-2-2c-1.32-1.32-2-1.32-2.64-2l-1.32-1.32s-1.31-1.32-2-.66,0,.66.66.66a5.07,5.07,0,0,0,2,1.32c.66.65,2.64,1.31,3.3,2-.66,0,0,1.32.65,2" style="fill:#2a1d0d"></path></svg> 